<?xml version="1.0" standalone="no"?>
<!DOCTYPE svg PUBLIC "-//W3C//DTD SVG 20010904//EN"
 "http://www.w3.org/TR/2001/REC-SVG-20010904/DTD/svg10.dtd">
<svg version="1.0" xmlns="http://www.w3.org/2000/svg"
 width="2000.000000pt" height="2000.000000pt" viewBox="0 0 2000.000000 2000.000000"
 preserveAspectRatio="xMidYMid meet">
<metadata>
Created by potrace 1.11, written by Peter Selinger 2001-2013
</metadata>
<g transform="translate(0.000000,2000.000000) scale(0.100000,-0.100000)"
fill="#000000" stroke="none">
<path d="M19990 17253 c0 -5 -22 -31 -48 -59 -26 -28 -58 -64 -72 -80 -58 -68
-156 -180 -166 -189 -5 -5 -39 -44 -75 -85 -35 -41 -68 -80 -74 -86 -5 -6 -35
-39 -65 -74 -30 -35 -60 -68 -65 -74 -15 -16 -211 -239 -380 -431 -82 -93
-152 -172 -155 -175 -3 -3 -39 -43 -80 -90 -41 -47 -86 -98 -101 -115 -14 -16
-64 -73 -110 -125 -46 -52 -88 -100 -94 -106 -12 -13 -118 -132 -235 -263 -47
-53 -87 -98 -90 -101 -3 -3 -37 -41 -75 -85 -39 -44 -72 -82 -75 -85 -3 -3
-59 -66 -124 -140 -66 -74 -124 -140 -130 -145 -6 -6 -49 -53 -96 -105 -47
-52 -89 -100 -95 -106 -5 -6 -37 -42 -70 -79 -33 -38 -65 -73 -70 -79 -6 -6
-50 -54 -98 -108 l-87 -96 0 -3026 0 -3026 1370 0 1370 0 0 4570 c0 2514 -2
4570 -5 4570 -3 0 -5 -3 -5 -7z"/>
<path d="M15431 14885 c-17 -15 -66 -61 -109 -103 -111 -110 -404 -390 -681
-652 -90 -85 -194 -184 -230 -220 -36 -36 -131 -126 -211 -201 -240 -226 -568
-540 -684 -655 l-71 -71 0 -2429 1 -2429 1089 0 1090 0 0 3358 0 3358 -22 6
c-13 3 -23 9 -23 15 0 5 -4 7 -9 3 -5 -3 -12 -1 -16 5 -4 6 -11 8 -16 5 -5 -4
-9 -2 -9 4 0 6 -7 8 -15 5 -8 -4 -15 -1 -15 7 0 7 -3 9 -7 6 -3 -4 -12 -2 -18
3 -9 8 -22 3 -44 -15z"/>
<path d="M8260 13367 c-48 -45 -201 -184 -236 -214 -12 -10 -61 -54 -110 -98
-146 -133 -206 -187 -289 -260 -43 -38 -90 -81 -105 -95 -15 -14 -58 -52 -95
-85 -38 -33 -73 -65 -79 -70 -10 -9 -146 -131 -251 -225 -21 -19 -62 -56 -90
-81 -27 -25 -67 -61 -89 -80 -21 -19 -48 -43 -60 -54 -12 -11 -59 -54 -105
-95 -46 -41 -93 -84 -105 -95 -20 -18 -116 -103 -219 -195 -22 -19 -54 -48
-72 -65 -18 -16 -65 -59 -106 -95 -41 -36 -83 -74 -95 -85 -23 -22 -157 -143
-190 -172 -50 -43 -170 -150 -199 -178 -18 -16 -63 -57 -101 -90 -37 -33 -90
-80 -117 -105 -80 -73 -90 -82 -167 -150 -40 -36 -85 -76 -100 -90 -15 -14
-60 -54 -100 -90 -40 -36 -88 -78 -106 -95 -17 -16 -47 -44 -66 -60 l-34 -30
0 -1148 0 -1147 3603 0 3603 0 -2 1857 -3 1856 -90 37 c-70 29 -418 170 -740
301 -16 7 -32 13 -35 14 -3 1 -16 7 -30 13 -14 6 -104 43 -200 82 -96 39 -206
84 -245 100 -59 25 -278 114 -615 251 -78 32 -231 95 -265 110 -35 14 -144 59
-330 134 -99 40 -434 177 -744 304 -310 127 -567 231 -570 231 -3 0 -26 -19
-51 -43z"/>
<path d="M2395 10538 c-11 -6 -56 -34 -100 -63 -44 -28 -255 -162 -470 -297
-214 -135 -465 -293 -557 -351 -93 -59 -168 -103 -168 -99 0 4 -4 1 -8 -5 -7
-11 -266 -176 -844 -536 l-178 -110 0 -144 c0 -113 -3 -143 -12 -137 -10 6
-10 5 -1 -8 7 -8 10 -18 6 -21 -3 -4 -6 -151 -7 -327 l-1 -320 1963 0 1962 0
0 704 c0 387 -3 711 -6 720 -3 9 -12 16 -20 16 -8 0 -14 4 -14 8 0 5 -18 17
-40 28 -22 10 -40 22 -40 27 0 4 -5 7 -10 7 -6 0 -19 8 -30 18 -10 9 -36 26
-57 37 -21 11 -43 25 -49 30 -10 9 -274 182 -321 210 -9 6 -49 31 -89 58 -40
26 -77 47 -83 47 -6 0 -11 5 -11 10 0 6 -7 10 -15 10 -8 0 -15 5 -15 10 0 6
-7 10 -15 10 -8 0 -15 5 -15 10 0 6 -6 10 -12 10 -7 0 -26 11 -42 25 -16 14
-34 25 -41 25 -6 0 -22 10 -35 23 -14 12 -28 22 -32 22 -4 0 -16 7 -26 15 -25
20 -51 36 -89 56 -18 9 -33 20 -33 25 0 5 -7 9 -15 9 -8 0 -15 5 -15 10 0 6
-7 10 -15 10 -8 0 -15 5 -15 10 0 6 -7 10 -15 10 -8 0 -15 5 -15 10 0 6 -7 10
-15 10 -8 0 -15 5 -15 11 0 5 -5 7 -10 4 -6 -3 -13 1 -16 9 -3 9 -10 13 -15
10 -5 -3 -12 2 -15 10 -3 9 -10 13 -15 10 -5 -3 -12 2 -15 10 -3 9 -10 14 -14
11 -4 -3 -11 2 -14 11 -4 9 -9 14 -13 11 -3 -4 -12 1 -20 11 -10 11 -12 12 -8
2 4 -8 -3 -4 -15 10 -12 14 -18 18 -14 10 5 -11 2 -10 -12 3 -24 22 -93 67
-102 67 -4 0 -16 -6 -27 -12z"/>
<path d="M0 4688 l0 -2568 1880 0 1879 0 43 41 c61 57 276 260 318 299 19 18
100 94 179 169 79 75 163 153 185 174 23 22 96 91 163 154 l123 116 0 1617 0
1618 -52 47 c-29 26 -123 113 -208 194 -85 80 -185 175 -223 211 -79 74 -101
95 -297 280 -78 74 -162 153 -187 176 l-44 41 -1880 0 -1879 0 0 -2569z m3372
1611 c46 -43 101 -94 124 -115 22 -22 90 -86 151 -143 l111 -104 0 -1247 0
-1247 -61 -60 c-34 -32 -100 -95 -147 -138 -47 -44 -125 -117 -173 -162 l-88
-83 -1139 0 -1139 0 0 1682 c0 925 2 1684 4 1688 2 3 515 6 1139 6 l1135 -1
83 -76z"/>
<path d="M5889 7251 c0 -3 -1 -1158 -1 -2566 l0 -2560 1988 -2 1989 -3 70 66
c39 36 117 109 175 162 57 53 136 127 175 163 38 36 106 99 150 139 112 104
174 161 220 206 l41 39 -1 642 -1 642 -24 21 c-14 12 -128 121 -254 243 -280
271 -331 320 -390 375 -25 24 -46 47 -46 51 0 9 41 46 200 182 47 40 90 78 96
83 6 6 31 27 55 47 24 21 59 50 77 66 l34 29 0 605 0 604 -74 70 c-41 38 -123
115 -183 170 -204 189 -269 248 -411 381 -66 63 -131 122 -145 132 -23 18 -79
19 -1881 19 -1022 0 -1858 -3 -1859 -6z m3302 -917 c24 -23 56 -52 71 -65 15
-13 58 -53 97 -87 l71 -64 0 -293 0 -292 -47 -43 c-44 -40 -116 -106 -235
-218 -26 -23 -64 -57 -85 -75 l-39 -32 -1054 1 c-580 1 -1058 2 -1062 3 -9 1
-11 1194 -3 1202 2 3 508 5 1123 5 l1119 -1 44 -41z m101 -2059 c9 -6 45 -37
80 -70 123 -115 279 -259 295 -270 14 -10 16 -52 16 -345 l0 -332 -34 -30
c-34 -30 -163 -145 -183 -163 -6 -6 -26 -22 -44 -38 l-34 -27 -1244 0 -1244 0
0 638 c0 351 2 641 4 643 10 10 2371 3 2388 -6z"/>
<path d="M11460 6816 l0 -441 505 1 505 0 0 -1688 0 -1688 -505 0 -505 0 0
-440 0 -440 1517 2 1518 3 0 438 0 437 -455 1 c-250 0 -478 0 -506 -1 l-51 -1
0 1688 0 1689 496 -1 c273 0 501 1 506 2 6 2 10 158 10 441 l0 437 -1517 1
-1518 1 0 -441z"/>
<path d="M16165 7234 c-15 -12 -88 -80 -163 -151 -75 -70 -150 -141 -166 -156
-16 -15 -84 -78 -149 -140 -66 -62 -134 -125 -152 -142 -17 -16 -89 -84 -158
-149 l-127 -119 0 -607 0 -607 48 -44 c26 -23 108 -100 182 -170 74 -69 151
-141 170 -159 72 -66 308 -287 385 -361 44 -41 97 -91 118 -110 l37 -34 1153
1 1152 0 30 -24 c17 -14 69 -61 116 -106 48 -44 125 -116 173 -160 l86 -78 0
-278 c0 -264 -1 -280 -19 -292 -17 -12 -169 -152 -287 -263 -18 -16 -46 -42
-63 -57 l-31 -28 -1589 0 -1589 0 -1 -440 0 -440 1827 0 1827 0 81 78 c75 72
296 279 374 352 49 45 281 262 360 337 36 33 77 73 93 87 l27 25 0 644 0 644
-112 105 c-62 58 -129 120 -148 138 -34 31 -211 198 -389 365 -47 44 -121 114
-165 157 -45 42 -92 85 -106 95 -24 19 -57 20 -1168 19 -629 -1 -1151 2 -1160
6 -9 3 -36 23 -58 45 -54 49 -135 124 -251 231 l-93 86 0 236 0 237 123 114
c196 183 229 213 249 234 19 20 32 20 1504 20 l1484 0 1 35 c1 45 1 786 0 821
l-1 26 -1714 0 -1714 0 -27 -23z"/>
</g>
</svg>
